<svg id="Layer_1" data-name="Layer 1" xmlns="http://www.w3.org/2000/svg" xmlns:xlink="http://www.w3.org/1999/xlink" viewBox="0 0 633.69 389.89"><defs><clipPath id="clip-path" transform="translate(-55.05 -87.14)"><path d="M442,267.29s-2.4,22.87-2.17,28.16a5.92,5.92,0,0,0,4.94,5.89s70.52.06,76.58-.15,4.87-5.91,4.87-5.91l-.11-22.88s-19.53-10.81-43.88-7S442,267.29,442,267.29Z" fill="none"/></clipPath></defs><title>Roaming_homepage_illustration_2</title><path d="M578.91,270.72s.4,19.6,2.1,23.85,6,.19,6,.19,8.77-7.45,9.48-22.26Z" transform="translate(-55.05 -87.14)" fill="#c61d25"/><path d="M634.73,273.94s6.27,20.7,7.22,22.57c2.74,5.39,5.83-1.45,5.83-1.45s6.45-13.37,5-23.85Z" transform="translate(-55.05 -87.14)" fill="#c61d25"/><path d="M353,213.83l.79,1.86a3.2,3.2,0,0,0,1.91,2.39c1.59.5,19.22,6.65,33,5.28s19.6-3.49,21.11-6.23-.14-8.52.1-10.55.32-6.29,6.12-5.27,10.72,5.27,12.71,6.94,14.93,9.2,26.15,5.64,10.49-17,8.48-21-7-14.65-6.46-18.32-.11-8.38,8.47-11,22.13,3.57,26.48,3.47,28.17,1.16,35.79-9.92c0,0,4.77-5.31,0-16.59s2.86-14.74,8.48-14.65a47.58,47.58,0,0,1,14.13,2.85c7.47,2.74,22.56-2,23.52-6.08s-1.43-6.79-9.38-7.08-9.37,3.32-24.62,0c0,0-29.23-6.08-54.17-19,0,0-12.08-8.38-32.89-9.39a77.32,77.32,0,0,0-37.33,8.09s-7.62,3.91-4,12.73,14.14,12.72,21,13.88,25.74,4.19,25.74,4.19,15.72,3.62,20.49,11.72S472,150.26,464.8,149.54s-21.93-6.22-26.85-7.81A141.6,141.6,0,0,0,422.7,138c-3.81-.72-8.26.43-4.93,4.34s14.14,11,19.07,18.8,1.9,17.49,1.9,17.49-1.11,11.43-14.45,7.81S396,176,396,176s-8.9-4.77-16.2-2.6,1.81,14.31,1.81,14.31,5.84,6.9,5,11.43c-1.15,6.35-6.51,17.84-20,15.26C357.73,212.69,353,213.83,353,213.83Z" transform="translate(-55.05 -87.14)" fill="#87d4f6"/><path d="M322.27,240.1l2.14-37.52L513.47,200c1.25,0,2.65,0,3.54.9a4.83,4.83,0,0,1,1,3.32q.75,17.69,1.49,35.37c-10,1.52-20.12,1.53-30.21,1.53l-167.71,0" transform="translate(-55.05 -87.14)" fill="#1e71b2"/><path d="M271.85,333.71c-28.55,2.67-25,14.37-53.2,19.4-20.33,3.62-41.31,8.22-58.75,18.8a4.91,4.91,0,0,0,2,9.09l19.1,2.06c-39,19-87.13,18.78-120.94,46-3.08,2.48-6.29,5.73-4.44,10.23.75,1.82,15.65,7.83,17.3,8.9,7.89,5.12,30.18,5.74,39.49,6.06,67.43,2.34,112.3-48.81,178.88-37.95,24.25,3.95-80.84,32.1,30.18,42.24,13.86,1.27,121.67.91,197,11C565.52,475.8,616.58,481,658,457.76c2.18-1.23,4.53-2.78,3.8-6a6.38,6.38,0,0,0-3.57-4.25A238.9,238.9,0,0,0,592.09,427a3.51,3.51,0,0,1-2.14-5.75c5.65-6.85,16.67-9,26.07-10.43a341.08,341.08,0,0,0,62-15.23c5.05-1.76,11-5,10.69-10.35a6.34,6.34,0,0,0-1.58-3.8,12.53,12.53,0,0,0-3.78-2.57c-96.07-49-208.22-51.68-316.12-53-22.5-.28-45.06.57-67.26,4.19-9.82,1.61-18.95-.61-28.14,3.63" transform="translate(-55.05 -87.14)" fill="#1bb588"/><path d="M302.62,219c-.25,0-17.56,4.13-25.8,6s-10.7,2.47-10.7,2.47-3.84.57-3.77-1.81,4.25-4.64,8.29-5.74,21.41-3.83,30.37-3.69,8,.52,8,.52S310.39,218.86,302.62,219Z" transform="translate(-55.05 -87.14)" fill="#fdd213"/><path d="M310.46,202.14c-2.44-.95-20.24-7.72-32.46-11.49A78.16,78.16,0,0,0,256.11,187s-6-.2-2.71,3.59,18.54,8.55,29.24,9.42,27.33,5.48,28.83,4.83C314.21,203.69,310.46,202.14,310.46,202.14Z" transform="translate(-55.05 -87.14)" fill="#fdd213"/><path d="M318.58,192.4S287,164.72,274.91,155.32c0,0-21.89-18.9-30.77-13.7s29.37,28.7,35.87,33,37.56,20.86,37.56,20.86S321.92,196.4,318.58,192.4Z" transform="translate(-55.05 -87.14)" fill="#fdd213"/><path d="M328.43,185.28S307.37,167,300.74,160.39s-13.5-14.14-9.42-16.09,13.13,5.09,16,10,21.9,28.49,21.9,28.49S333.42,188.43,328.43,185.28Z" transform="translate(-55.05 -87.14)" fill="#fdd213"/><path d="M340.59,183.76s-8.13-19.5-9.27-24.5,1.95-8.13,3.89-7.51,6.46.7,7.22,17.5.4,14.49.4,14.49S342.35,187,340.59,183.76Z" transform="translate(-55.05 -87.14)" fill="#fdd213"/><path d="M553.87,192.36" transform="translate(-55.05 -87.14)" fill="none" stroke="#060606" stroke-miterlimit="10"/><path d="M562.65,200.89" transform="translate(-55.05 -87.14)" fill="#221f1f"/><path d="M670.76,362.67s22,3,17.13,13.92-29.54,9.65-29.54,9.65-25.56.43-23.57-10.93S652.61,362,654.42,362" transform="translate(-55.05 -87.14)" fill="#cfd1d2"/><path d="M350.2,321.14s.86-4.64,3.93-4.64,3.43,3.36,3.43,3.36,4.72.39,4.72,4.85c0,6.82-1.34,10.84-3.11,13.05-1.52,1.9-2.81,1.49-5.5,1.72s-5.54-4.43-5.33-7.74A103,103,0,0,1,350.2,321.14Z" transform="translate(-55.05 -87.14)" fill="#efa43f"/><path d="M311.54,354.82S311.21,338,295.67,339c0,0-10.86.68-10.9,19,0,0-11.2,1.34-16.7,1.17l-8-.23s.52-51,1.29-60.28c0,0,.06-1.84,2.58-2.6s23.95-5.29,23.95-5.29,1.36.54,3.54-5.23S303,249.51,303.86,247a10.1,10.1,0,0,1,8.19-6.26c4.69-.7,161.4.18,176.91,0s45.65,1,48,1.41,2.19,4.9,2.19,4.9-2.21,48-2.85,58.15S534.08,356,534.08,356s-.07,2.84-4.57,3-28.8-1.52-28.8-1.52-1.66-.21-1.56-3.55-.69-16.35-11.36-16.17-12.68,11.63-12.82,16.3c0,0-.22,1.66-2.9,2.08S322.18,355.8,311.54,354.82Z" transform="translate(-55.05 -87.14)" fill="#e91d25"/><path d="M343.55,252.67s-2,72-2.35,85.11l-.12,4s-.82,5.14,2.18,5.23,15,.94,19.65.58,4.7-6.53,4.7-6.53,4-72.56,4.07-81.06a54.07,54.07,0,0,0,.18-5.49c-.16-1,.61-4.48-4.71-4.81s-15.32-.54-18.66-.55C343.82,249.14,343.55,252.67,343.55,252.67Z" transform="translate(-55.05 -87.14)" fill="#002853"/><path d="M343.55,252.67s-2,72-2.38,85.14l-.12,4s-.71,5,1.81,5.65,12.55,3.67,16.47,4.16,4-5.71,4-5.71,3.69-72.22,3.8-80.75c0,0,.3-4.46.18-5.49s.53-4.4-3.93-5.69-12.84-3.33-15.64-3.95C343.79,249.17,343.55,252.67,343.55,252.67Z" transform="translate(-55.05 -87.14)" fill="#1e71b2"/><path d="M334.91,253l-.85,28.72c-.2,6.67-6.05,6.1-6.05,6.1l-22.68.34s-6.48,0-3.85-6.79,8.87-26.26,10.77-29,2.75-3.89,7.2-3.9,12.54.37,12.54.37S335,248.78,334.91,253Z" transform="translate(-55.05 -87.14)" fill="#80cce3"/><path d="M442,267.29s-2.4,22.87-2.17,28.16a5.92,5.92,0,0,0,4.94,5.89s70.52.06,76.58-.15,4.87-5.91,4.87-5.91l-.11-22.88s-19.53-10.81-43.88-7S442,267.29,442,267.29Z" transform="translate(-55.05 -87.14)" fill="#80cce3"/><path d="M477.1,354.56s-.16-11.32,10.81-11.82,10,15,10,15,.38,11.14-10,10.76S476.6,358.05,477.1,354.56Z" transform="translate(-55.05 -87.14)" fill="#221f1f"/><path d="M308.59,353.23s-1.87-10.23-11.38-10-9.72,13.06-9.72,13.06-.15,11,11.16,11.66S308.36,355.39,308.59,353.23Z" transform="translate(-55.05 -87.14)" fill="#221f1f"/><path d="M309.06,241.64s-1.84-9.84.33-11.11,185.71-.44,199,0l29.32.86-.82,10.81S340,239,309.06,241.64Z" transform="translate(-55.05 -87.14)" fill="#002853"/><path d="M259.62,328.34s11.1-1.63,12,7.94-11.78,10.17-11.78,10.17Z" transform="translate(-55.05 -87.14)" fill="#fdd213"/><path d="M585.58,273.05c-34.89-4.3-47.35-26.64-47.87-27.54l.31-2.71c.12.21,13.87,24.14,47.56,27.92,34.17,3.84,49.15,1.69,49.3,1.68A282.05,282.05,0,0,0,664,267.14l.68-.18,2.61,2.82-1.73,1.6-1.65-1.8c-6,1.39-27.82,5.59-28.77,5.75A383.51,383.51,0,0,1,585.58,273.05Z" transform="translate(-55.05 -87.14)" fill="#e91d25"/><path d="M547.38,256.15s2.13,14,3.23,23.85c.73,6.56,3,9.71,6.35,6.89,2.71-2.26,10.14-13.52,12.74-19.14Z" transform="translate(-55.05 -87.14)" fill="#e91d25"/><path d="M604.38,273.05l5.11,24.07s1.35,5.18,5.24,0c6.37-8.49,5.91-23.06,5.91-23.06Z" transform="translate(-55.05 -87.14)" fill="#e91d25"/><polygon points="605.14 179.47 602.46 277.67 609.6 277.67 613.71 178.61 605.14 179.47" fill="#909295"/><path d="M383,257.33s-.13,29.26,0,36.59c0,3.65.37,4.79,6.27,5.12s33-.1,33-.1,3.81,0,3.41-6.89c-.42-7.38-.6-32.52-.6-32.52s.8-4.82-2.81-5.14c-2.64-.23-21.39-2.56-34.85-.9C382.41,254.11,383,255.38,383,257.33Z" transform="translate(-55.05 -87.14)" fill="#80cce3"/><path d="M384.1,308s-.13,27.77,0,34.73c.05,3.47.35,4.55,5.95,4.86s31.3-.1,31.3-.1,3.62,0,3.24-6.53c-.4-7-.57-30.87-.57-30.87s.76-4.58-2.67-4.88c-2.51-.23-20.3-2.44-33.08-.86C383.52,304.91,384.1,306.12,384.1,308Z" transform="translate(-55.05 -87.14)" fill="#1e71b2"/><path d="M556.51,414.5c-1.28,2-.15,7.85-.54,9.93s-1.78,20.6-1.78,20.6h5c.89-8.88,4.14-28,4.14-28Z" transform="translate(-55.05 -87.14)" fill="#805e3b"/><path d="M581,415.24a47.31,47.31,0,0,1,5.45,17.57,64.84,64.84,0,0,1-.6,15.8l-5.33-1.87s-.79-15.9-1.63-19.16-4.49-9.39-4.2-11.36Z" transform="translate(-55.05 -87.14)" fill="#805e3b"/><path d="M566.16,350.28s-5.53-5.88-3.95-12.79a8.15,8.15,0,0,1,8.15-6.62s7.9-.2,6.81,8-3.9,11.41-3.9,11.41Z" transform="translate(-55.05 -87.14)" fill="#805e3b"/><path d="M556,391.48s-1.1,4.73-1.78,9.67c-.89,6.44-2.65,10.66-1.24,13.15s6.18.74,8.45,2.32,4.73,2.08,5.68,1.38.94-8.6,2.52-8.74,0,6.82.59,8.24,2.57.6,5.24-.39,8.27,1,9.43,0,.49-10-.4-12.91-2-13.63-2-13.63Z" transform="translate(-55.05 -87.14)" fill="#f9a980"/><path d="M591.5,367.79c-1.88-12.84-1.45-13.86-4.71-15.14s-9.59.18-12.35-.71l.8-1.18a.83.83,0,0,0-.69-1.3h-9.34a1.5,1.5,0,0,0-1.38,2.06l.15.36s-4.16-.83-7.12.06c-.34.1-11.41,5.73-10,26.3.5,7.22,6.6,13.64,7.64,14.67a2.39,2.39,0,0,0,.26,1.06c1.15,1.73,10.15-.4,13.51-.9s8.52.53,8.52.53,6.21.81,6-1.56c0-.41-.1-1-.2-1.74C584.75,388.9,593.56,382.22,591.5,367.79ZM556,379.8s-.49,2.53-.93,5.46a27.34,27.34,0,0,1-2.9-10.31c-.13-1.61.53-11.64,2.94-12S556,379.8,556,379.8Zm29.33-4.8c-.91,3-3.09,6.64-3.85,8.37-.26-1.62-.46-2.8-.46-2.8s1.57-14.31,3.42-14.68S586.36,371.77,585.37,375Z" transform="translate(-55.05 -87.14)" fill="#58575a"/><path d="M586.65,447.18s.31,7.78,0,9-7,.33-7,.33l-.42-4.75a2.88,2.88,0,0,1-3.09,1.52,11.77,11.77,0,0,1-3.74-3.26c-.57-.87.55-3.07.55-3.07s.15-2.18,3.39-1.18a37,37,0,0,0,3.87,1.51c.24,0,0-1.27.26-1.23C583.45,446.58,586.65,447.18,586.65,447.18Z" transform="translate(-55.05 -87.14)"/><path d="M560.91,441s.31,7.78,0,9-7,.33-7,.33l-.42-4.75a2.89,2.89,0,0,1-3.09,1.52c-.75-.16-3.09-2.24-3.75-3.26s.56-3.07.56-3.07.15-2.17,3.38-1.18a37.29,37.29,0,0,0,3.88,1.51c.23.05,0-1.26.25-1.22C557.71,440.43,560.91,441,560.91,441Z" transform="translate(-55.05 -87.14)"/><path d="M574.51,324.17c-2.62-5.19-9-2.56-9-2.56-11.71,2.18-5.9,9.92-5.9,9.92,3.37,3.43,7.52.6,7.52.6s-1.25,15.66,4.63,15.66,9.18-7.52,9.22-12.43C581,335.36,579.59,325.75,574.51,324.17Z" transform="translate(-55.05 -87.14)" fill="#221f1f"/><path d="M580.9,328.2s2.28-6.12,3-9a28.2,28.2,0,0,0,.5-6.32c.07-1.06,0-2.14,0-2.14s-1.7-.68-1.86-1.6a48.88,48.88,0,0,0-4.83,2.22A43.63,43.63,0,0,0,571,316c-1.42,1.33-5.2,5.21-5.2,5.21Z" transform="translate(-55.05 -87.14)" fill="#d0d2d3"/><path d="M580.91,328.19s.41-1.1.93-2.59l-1-1.29c-1.68-2.14-7-10.56-7-10.58-.72.49-1.43,1-2.06,1.51.38.54.75,1.12.75,1.12,1.78,3.67,7.47,10.83,7.47,10.83Z" transform="translate(-55.05 -87.14)" fill="#683d8e"/><path d="M575.07,325.48,571.79,324s-3.71-5-3.32-5.55a14,14,0,0,1,1.68-1.68c.93,1.68,3.64,6.6,4.47,8C574.77,325,574.92,325.24,575.07,325.48Z" transform="translate(-55.05 -87.14)" fill="#683d8e"/><path d="M578,311.14h0c.66-.36,5.63,8.8,5.63,8.8-.24.86-.55,1.86-.88,2.88,0,0-5.43-8.5-6.75-10.49.65-.4,1.24-.75,1.69-1l.31-.18" transform="translate(-55.05 -87.14)" fill="#683d8e"/><line x1="518.8" y1="226.6" x2="518.8" y2="226.6" fill="#683d8e"/><line x1="520.98" y1="225.19" x2="520.98" y2="225.2" fill="#683d8e"/><line x1="527.74" y1="235.68" x2="527.74" y2="235.68" fill="#683d8e"/><path d="M581.84,325.6" transform="translate(-55.05 -87.14)" fill="#683d8e"/><path d="M575.07,325.48" transform="translate(-55.05 -87.14)" fill="#683d8e"/><path d="M586,309.17a4.77,4.77,0,0,1,.67,1.28c0,.3-1.38-.31-1.38-.31s-.25,0-.21.31a8.17,8.17,0,0,1,0,1s-.24,0-.6-.42l-1.1.43-.34-1.28a6.33,6.33,0,0,1-1.22-.38c-.13-.14.11-.75.11-.75l-.85-.65,1.46-.57a7.1,7.1,0,0,1,0-1.35c.08-.21,1.39.82,1.39.82l1-.87a.07.07,0,0,1,.12,0,2.41,2.41,0,0,1,.1,1.34,4.66,4.66,0,0,1,1.7.08C587.18,308.1,586,309.17,586,309.17Z" transform="translate(-55.05 -87.14)" fill="#fdd213"/><path d="M578.23,329.58s2.44,3.41,3.91.52-3.32-3.1-3.32-3.1a3,3,0,0,0-1.75-1.65c-1.42-.58-1.92.21-1.92.21a1.87,1.87,0,0,0-1.38-1.74c-1.43-.5-1.81.17-1.81.17s-.44-1.36-1.23-1.49a1.73,1.73,0,0,0-1.3.27s-.37-2.54-3.82-1.54c0,0-1-1.14-1.58.22s0,2.58,1.87,2.57c0,0,1.28,2.58,3.32,1.24,0,0,1.22,2.93,3.28,1.68,0,0,1.19,1.94,2.49,1.15A2.38,2.38,0,0,0,578.23,329.58Z" transform="translate(-55.05 -87.14)" fill="#683d8e"/><path d="M136.75,408.78s-22,3-17.13,13.92,29.54,9.66,29.54,9.66,25.56.43,23.57-10.94-17.83-13.35-19.63-13.35" transform="translate(-55.05 -87.14)" fill="#cfd1d2"/><path d="M143,268.87s.34,144.84,1.4,147.68,1.85,3,5.81,3.22a4.19,4.19,0,0,0,4.66-3.79l-.49-145.77Z" transform="translate(-55.05 -87.14)" fill="#909295"/><path d="M296.48,257.27s1,16.73,0,25.83c-.67,6-2.74,8.93-5.84,6.34-2.49-2.08-9.32-12.44-11.71-17.6Z" transform="translate(-55.05 -87.14)" fill="#e91d25"/><path d="M243.59,286.21l-5.11,24.06s-1.35,5.19-5.23,0c-6.37-8.49-5.92-23.06-5.92-23.06Z" transform="translate(-55.05 -87.14)" fill="#e91d25"/><path d="M180.41,280.67l-5.11,24.06s-1.35,5.19-5.24,0c-6.36-8.49-4.54-27.43-4.54-27.43Z" transform="translate(-55.05 -87.14)" fill="#e91d25"/><path d="M272,276.32l-2.16,26.21s-1.22,4.68-4.73,0c-5.75-7.66-7.78-19.92-7.78-19.92Z" transform="translate(-55.05 -87.14)" fill="#c61d25"/><path d="M212.74,286.21s-8.52,23.48-9.46,25.34c-2.74,5.39-5.84-1.44-5.84-1.44s-6.15-16.69-4.72-27.18Z" transform="translate(-55.05 -87.14)" fill="#c61d25"/><path d="M227,287.74A137,137,0,0,0,245,286.59c34.67-4.6,61.35-40.35,61.61-40.72l-1.53-1.13c-.26.36-26.48,35.46-60.33,40-45.87,6.1-94.56-14.4-95-14.6l-.75,1.75C149.39,272,186.69,287.74,227,287.74Z" transform="translate(-55.05 -87.14)" fill="#e91d25"/><path d="M383.93,427.29c-3.56,2.26,1.23,3.66-.94,13.69-1.06,4.91-.49,19.63-1,20.78-.43.95,1.39,1.47,3.28,1.21,1.63-.23,3.92-1.18,4-1.52.12-.73.29-11.39.6-17a116,116,0,0,0-.34-16.47Z" transform="translate(-55.05 -87.14)" fill="#805e3b"/><path d="M404.1,427.29c-3.57,2.26,1.23,3.66-.94,13.69-1.06,4.91-.49,19.63-1,20.78-.43.95,1.39,1.47,3.28,1.21,1.63-.23,3.92-1.18,4-1.52.12-.73.28-11.39.6-17a116,116,0,0,0-.34-16.47Z" transform="translate(-55.05 -87.14)" fill="#805e3b"/><path d="M423.88,443.61c-1.69,4.72-.48,19.62-1,20.78-.42.95,1.39,1.47,3.28,1.2a5.8,5.8,0,0,0,3.12-1.12c.41-.82,2.3-12.29,1.85-17.7-.09-1,.39-2.58,0-3.43C430.11,441.19,425.07,440.28,423.88,443.61Z" transform="translate(-55.05 -87.14)" fill="#805e3b"/><path d="M440.28,444.28c-1.06,4.9,0,24.14-.56,25.29-.42.95,6,.66,6,.32.12-.74,1.84-16.77,2.15-22.4C448.38,438.81,442.45,434.24,440.28,444.28Z" transform="translate(-55.05 -87.14)" fill="#805e3b"/><path d="M389.85,460.74l-.65,10.85a16.34,16.34,0,0,1-3.55.13c-.49,0-.86-2.23-2.27-2.09-.54.06-.83,1.79-1.45,1.86-4.44.48-10.56,1.16-12.86.93a5.58,5.58,0,0,1,.57-4.18c1.22-1.82,2-2,4.29-2.1l2.94-.23c3.19-.17,4.84-1.78,4.85-5l3.59.68Z" transform="translate(-55.05 -87.14)"/><path d="M410.17,460.47l-.65,10.85a17.48,17.48,0,0,1-3.55.13c-.49,0-.86-2.24-2.27-2.09-.54.05-.83,1.79-1.45,1.85-4.44.48-10.56,1.17-12.86.94A5.58,5.58,0,0,1,390,468c1.22-1.83,2-2,4.29-2.11l2.94-.22c3.19-.17,4.84-1.79,4.85-5l3.59.69Z" transform="translate(-55.05 -87.14)"/><path d="M446.86,468.38l-.21,8.34a17.56,17.56,0,0,1-3.56.13c-.49,0-1.2-3.7-2.6-3.55-.54.05-3.76,3.19-4.38,3.26-4.44.48-5.27.91-6.09-.39a5.56,5.56,0,0,1,.57-4.17c1.22-1.83,7-3.26,8.62-3.14l1.68.64a4.65,4.65,0,0,0,3.48-.06l1.89-1.06Z" transform="translate(-55.05 -87.14)"/><path d="M429.84,463.33l-.21,8.33a16.22,16.22,0,0,1-3.55.13c-.49,0-1.2-3.69-2.61-3.55-.54.06-3.75,3.2-4.37,3.26-4.44.48-5.66.94-6.09-.38a5.58,5.58,0,0,1,.57-4.18c1.22-1.83,7-3.26,8.62-3.14l1.68.65a4.65,4.65,0,0,0,3.48-.07l1.89-1.05Z" transform="translate(-55.05 -87.14)"/><path d="M380.63,405.2s-3.29,13.36-3,21.77a100.16,100.16,0,0,1,0,12s-.32,2.2,3.95,2.26,5.57-.75,8.41-.69,2.91-.19,3.1-2.91,2.47-14.11,2.47-14.11l.5,8.91s.24,8,.43,8.48.43,1.67,2.79,1.11,9.9-.74,12.37-1.6a4.91,4.91,0,0,0,3.1-2.67s.43-1.36-.44-4.2-3.71-25.13-3.71-25.13l.06-.68Z" transform="translate(-55.05 -87.14)" fill="#b6a98f"/><path d="M441.16,354.08c.22-.53.44-1.11.67-1.74,3.57-10,3.46-21.84-4.83-21.54-6.48.24-9.29,12.61-8.7,18.95.51,5.52,1.59,9.21,5.36,10.33h0a6.2,6.2,0,0,1-.61,5.06l7.88-1.93s2.21-1.42,1.76-5C442.34,355.27,441.47,354.34,441.16,354.08Z" transform="translate(-55.05 -87.14)" fill="#805e3b"/><path d="M452.56,359.56s7-11.79-1.09-12.44c1.93-1.63,4.5-4.63,2.91-8.24-2.42-5.48-6.22-3.9-6.22-3.9s3.45-4.09.31-6.89a4.74,4.74,0,0,0-6.27-.42s-4.73-7-10.93-.42c0,0-10.37-1.32-5.7,8.29,0,0-6.21,6.9,1.53,8.83,0,0,4.71.86,7.13-5.49,0,0,5.14,5.21,5.6,8.92.42,3.36-1.59,10.19,2.14,11.36,0,.22,0,.36,0,.36-.43,4.26.49,16.49,10.06,17.05S452.56,359.56,452.56,359.56Z" transform="translate(-55.05 -87.14)" fill="#221f1f"/><path d="M447.93,401.15c.39-9,2.76-20.32,2.65-27.19s-7.68-13.09-9.95-12.47c-1.74.47-8.6,2.57-8.6,2.57-1.62,6.14-3.41,5.3-7.95,9.73s2,12,2,12,1.45.6-.61,7.83c-1.51,5.3-.43,9.65-.43,12,0,.73-8.48,32.25-10.64,37.5s0,4.17,0,4.17,7,0,13.44-.31,19.31,1.85,23.44,1.39,5.1-1.24,5.45-3.71C458.53,432,447.53,410.12,447.93,401.15Z" transform="translate(-55.05 -87.14)" fill="#ffbfcc"/><path d="M446.25,382.84s-1.11,9.74-1.46,12.27-1.46,4.46-6.74,6.77c-4.25,1.86-20.93,3.43-20.93,3.43l-.51-3.74s17-4.66,20.07-7.05c2.42-1.86,2.15-3,2.15-11.68Z" transform="translate(-55.05 -87.14)" fill="#805e3b"/><path d="M394.1,354c-.33-.25-4.88-3.68-5.64-8.23a21.17,21.17,0,0,1,.37-8.87s.5-7.35,6.44-6.27,8.42,9.9,8.42,9.9,1.78,6.3-1.16,10.56S395.82,355.3,394.1,354Z" transform="translate(-55.05 -87.14)" fill="#805e3b"/><path d="M385.36,330.81s1.43,7.28,8.8,2c0,0,3.22,4.75,6.75,3.68,0,0-1.2,10.74,2.86,13.07,0,0,2.07,2.57,5.25.24,0,0,4.76-6.28,3.9-11.3a9.21,9.21,0,0,0-.51-6.14,13.48,13.48,0,0,0-2.94-4.21L401.81,324s-5.48-1.55-8.47,1.49C393.34,325.45,384.18,326.94,385.36,330.81Z" transform="translate(-55.05 -87.14)" fill="#221f1f"/><path d="M402,351.28s-1.49,2.33,1.55,3.7-11-.23-11-.23,1.43-3.17,1.43-3.47S402,351.28,402,351.28Z" transform="translate(-55.05 -87.14)" fill="#805e3b"/><path d="M402.09,353.7s8.94-.77,11.79,4.26,4.1,15.86,4.1,15.86-3.82,3.32-6.84,2.27c-.41-.14-.4-4.39-1.61-4.34-1.72.06-2,2.4-1.26,8.13s4.44,16.29,4.44,16.29.91,5.57.58,8.22a17.23,17.23,0,0,1-2.23,5.69s-1.73,2.39-9.41,1.4A125,125,0,0,0,389,410.41l-6.83-1.05s-5.6,5.09-5.27-11.91,4.57-17.54,4.72-22.06-2.9-6.45.8-14.45c2.45-5.31,6.88-7.93,10.18-7.77S396.63,355.87,402.09,353.7Z" transform="translate(-55.05 -87.14)" fill="#cfd1d2"/><path d="M414.09,386.53a.33.33,0,0,1,.41.31c0,1.54-.08,19.59-.08,19.59a2,2,0,0,1-1.46,2l-9.6,4a5,5,0,0,1-3.4-.08c-2.08-1-8.94-4.52-8.94-4.52a1.53,1.53,0,0,1-.89-1.53c-.06-2.15-.66-17.91-.63-19.49,0,0-.05-1,.78-.76,1.11.36,10.87,3.26,10.87,3.26a5.42,5.42,0,0,0,2.39-.14C404.78,388.8,412.25,387,414.09,386.53Z" transform="translate(-55.05 -87.14)" fill="#e11e3f"/><path d="M396.85,410.73l0-2.28c0-2.37-.1-6.79,0-9.74.12-3.18,0-10.37,0-10.44l1.86,0c0,.3.13,7.31,0,10.54-.11,2.9,0,7.29,0,9.64l0,3.23Z" transform="translate(-55.05 -87.14)" fill="#fff"/><path d="M392.49,408.53c0-.27-.24-5.95,0-9.37s-.31-12.14-.31-12.23l1.86-.11c0,.36.53,9,.32,12.46s.05,10.14.05,10.2Z" transform="translate(-55.05 -87.14)" fill="#fff"/><path d="M407.12,410.82l-1.82.75c0-.07.17-7.88.17-10.54s-.52-12.34-.53-12.44l1.86-.1c0,.4.54,9.84.54,12.54S407.13,410.51,407.12,410.82Z" transform="translate(-55.05 -87.14)" fill="#fff"/><path d="M411.86,408.86l-1.87.77c0-.05.25-5.16.16-7.47s-.34-14.29-.35-14.8l1.87,0c0,.13.25,12.42.34,14.77S411.87,408.66,411.86,408.86Z" transform="translate(-55.05 -87.14)" fill="#fff"/><path d="M403.15,412.44a7.43,7.43,0,0,1-1.06.21,3.43,3.43,0,0,1-1.09-.06s.4-6.56.38-12.61c0-.91-.12-2.45-.23-3.82-.07-1-.14-1.8-.16-2.34-.11-3.13-.05-4.47-.05-4.53l1.87.09s-.06,1.34.05,4.37c0,.51.08,1.36.15,2.27.11,1.4.23,3,.23,4C403.26,406,403.15,412.44,403.15,412.44Z" transform="translate(-55.05 -87.14)" fill="#fff"/><path d="M408.75,382.93s6.46,3.93,4.89,4.46c-7.23,2.46-4.75-1.07-7.28.31s-6-.19-10,0a11.08,11.08,0,0,1-6.58-1.71s7.17-5.52,9.13-7.4,6.32.82,6.32.82-.1-1.63,1.35-1.49,1,2.44.79,2.78Z" transform="translate(-55.05 -87.14)" fill="#f8e696"/><path d="M387.12,385.32s.54-2.49,2.54-2.42a1.26,1.26,0,0,1,1,1.39,1.91,1.91,0,0,1,2.25-.12.79.79,0,0,1,.32,1.06s1.1-.12,1.2.56.14,1.57-.79,1.62-1.19-.46-1.19-.46S387.24,388.36,387.12,385.32Z" transform="translate(-55.05 -87.14)" fill="#f6f5d3"/><path d="M388.61,385.31s.24-1.12,1.14-1.09a4.45,4.45,0,0,1,1.48.57.35.35,0,0,1,.14.47s.49-.05.54.25.06.71-.35.73-.54-.2-.54-.2S388.66,386.67,388.61,385.31Z" transform="translate(-55.05 -87.14)" fill="#f5ba49"/><path d="M394.34,388.66s-1.5-1.59,1.16-2.78a2.19,2.19,0,0,1-.2-2.58c.83-1.52,2.09-.27,2.25.49l.17,1.2a.94.94,0,0,1,1.34-.61c1.06.42,1.1,1.14,1,1.5s-.72.71-.72.71,1.33,1.14.33,2S395.05,389.71,394.34,388.66Z" transform="translate(-55.05 -87.14)" fill="#fdf49a"/><path d="M395.76,387.58s-1-.56,1.34-1.84l.32,0s0-.25.48-.06.5.52.45.68-.32.32-.32.32.6.52.15.88S396.09,388.05,395.76,387.58Z" transform="translate(-55.05 -87.14)" fill="#f5ba49"/><path d="M390.73,385.27s-1.09-1.71.76-2.2c0,0,.53,0,.7-1.24s2.36-.72,2.52-.07c0,0,.63-.53,1.11-.2s.86.5.55,1.74,1,3.3-1,3.08c0,0-.85-.3-.82-1.7,0,0,0,1.89-1.66,1.72A2.65,2.65,0,0,1,390.73,385.27Z" transform="translate(-55.05 -87.14)" fill="#f7e183"/><path d="M394.43,383.09s.46.57-.18.82c0,0-.19,0-.2.47s-.8.36-.89.14c0,0-.2.21-.39.11s-.33-.14-.27-.59-.51-1.14.23-1.14a2.78,2.78,0,0,1,.88-.12A1,1,0,0,1,394.43,383.09Z" transform="translate(-55.05 -87.14)" fill="#f5ba49"/><path d="M394.34,382s-1.33-1.85.76-2.42c0,0-.4-1.28.69-1.11a1.35,1.35,0,0,1,1.2,1.13s2.93-1.15,2.59,1.05c0,0,1.47.27.93,1.49a.91.91,0,0,1-1,.48s.43,1.7-1.88,1.3A5,5,0,0,1,394.34,382Z" transform="translate(-55.05 -87.14)" fill="#f6f5d3"/><path d="M396.22,381.49s-.48-.67.27-.87c0,0-.14-.46.25-.4s1.49,0,1.37.79c0,0,.53.09.33.53a.33.33,0,0,1-.36.18s.16.61-.68.47A1.81,1.81,0,0,1,396.22,381.49Z" transform="translate(-55.05 -87.14)" fill="#f5ba49"/><path d="M396.15,378.92s-.86-2.43.87-2.12c0,0-.42-1.73,1-1.82,0,0,.58-.11.85.75,0,0,1.94.5,1.93,2.27a1.93,1.93,0,0,1-1.85,1.87S396.35,380.27,396.15,378.92Z" transform="translate(-55.05 -87.14)" fill="#f7e183"/><path d="M397.69,378.09s.16-1.36.67-1.39c0,0,.2,0,.3.26,0,0,.69.18.68.8a.68.68,0,0,1-.65.67S397.76,378.57,397.69,378.09Z" transform="translate(-55.05 -87.14)" fill="#f5ba49"/><path d="M398.89,376s.22-1.68,1.34-1.79a1.35,1.35,0,0,1,1.58,1.52S401.53,378.83,398.89,376Z" transform="translate(-55.05 -87.14)" fill="#fdf49a"/><path d="M402.71,378.69s-1.85.7-2.16-.88a1.93,1.93,0,0,1,2.57-2.24,1.6,1.6,0,0,1,.57.57s.58-.64,1.06-.05.46.85.46.85a.89.89,0,0,1,1.3.62,1.27,1.27,0,0,1-1.68,1.43s.2.65-.69.93C404.14,379.92,402.5,380.37,402.71,378.69Z" transform="translate(-55.05 -87.14)" fill="#f6f5d3"/><path d="M403.23,378.06s-.68.26-.8-.32a.72.72,0,0,1,.95-.83.61.61,0,0,1,.21.21s.22-.23.39,0,.17.32.17.32a.33.33,0,0,1,.48.23c.12.4-.4.66-.62.53,0,0,.08.23-.25.34C403.76,378.52,403.15,378.68,403.23,378.06Z" transform="translate(-55.05 -87.14)" fill="#f5ba49"/><path d="M407.13,381.77s-2.47-.46.29-2.46a.51.51,0,0,1,.78.32s.73-1,1.24-.24.66,1.09.23,1.73" transform="translate(-55.05 -87.14)" fill="#faf9ed"/><path d="M402,381.5s-2.06-2.13,1.95-2.16a.61.61,0,0,1,.54.84s1.38-.47,1.35.63-.12,1.49-1,1.81C404.82,382.62,402.47,382.62,402,381.5Z" transform="translate(-55.05 -87.14)" fill="#faf9ed"/><path d="M400.61,384.26s-3.13-1.11.88-3.15a.69.69,0,0,1,1,.58s1.15-1.16,1.66-.05.63,1.56-.06,2.3C404.05,383.94,403.2,385.46,400.61,384.26Z" transform="translate(-55.05 -87.14)" fill="#faf9ed"/><path d="M401.23,383.75s-1.31-.47.37-1.33c0,0,.63-.31.68.06,0,0,.69-.05.91.42s-.22.4-.51.71C402.68,383.61,402.32,384.25,401.23,383.75Z" transform="translate(-55.05 -87.14)" fill="#f5ba49"/><path d="M403.37,387s-3.32-.62.38-3.3a.69.69,0,0,1,1.05.42s1-1.34,1.67-.31.88,1.47.3,2.32C406.77,386.15,406.2,387.5,403.37,387Z" transform="translate(-55.05 -87.14)" fill="#faf9ed"/><path d="M406.83,383.75a.66.66,0,0,0,0-.63c-.19-.27-.87-.45-.2-1.49a1.73,1.73,0,0,1,3.16.34s.74-.68,1.4-.15a2.15,2.15,0,0,1,.75,1.25s1.29-.49,1.82.47-.25,2.79-1.17,2.33-.85-1-.85-1a1.17,1.17,0,0,1-1.26.67C409.56,385.38,407,385.87,406.83,383.75Z" transform="translate(-55.05 -87.14)" fill="#fdf49a"/><path d="M408.89,383.7a.19.19,0,0,0,0-.17c-.06-.08-.25-.13-.06-.42a.52.52,0,0,1,.77-.08.84.84,0,0,1,.49.14c.18.14.56.21.71.47s-.07.77-.32.65-.24-.28-.24-.28a.33.33,0,0,1-.35.18C409.64,384.15,408.94,384.29,408.89,383.7Z" transform="translate(-55.05 -87.14)" fill="#f5ba49"/><path d="M397.15,384.57s.75-.53,1.26-.2c0,0-.3-1.34.8-1.66a1.32,1.32,0,0,1,1.57.73s1-.75,1.64.75a1.72,1.72,0,0,1-.05,1,2.24,2.24,0,0,1,2,.42s1.64,1.85-2.67,1.71c-3-.1-3.15-.91-3.15-.91S396.18,386.59,397.15,384.57Z" transform="translate(-55.05 -87.14)" fill="#f6f5d3"/><path d="M399.47,385.1a1.41,1.41,0,0,1,.59-.53.4.4,0,0,1,.45.21s.29-.21.46.21c0,0,.29.2.55.41,0,0,.47.53-.76.49-.85,0-.9-.26-.9-.26S399.2,385.68,399.47,385.1Z" transform="translate(-55.05 -87.14)" fill="#f5ba49"/><path d="M399.75,387.27s.44-1.84,1.88-.82c0,0,1-.75,1.56-.38s.62.83.18,1.5a1.23,1.23,0,0,1,.86.75c.23.62-.52,1.28-.52,1.28a5.06,5.06,0,0,1-.8.76c-.27.16-2,1.52-3.06-.29S399.75,387.27,399.75,387.27Z" transform="translate(-55.05 -87.14)" fill="#f7e183"/><path d="M401,388s.17-.71.73-.31c0,0,.38-.29.6-.15s.24.32.08.58a.48.48,0,0,1,.33.29c.09.24-.2.5-.2.5a2.36,2.36,0,0,1-.31.29c-.11.06-.77.59-1.19-.11S401,388,401,388Z" transform="translate(-55.05 -87.14)" fill="#f5ba49"/><path d="M409,389.86a1.69,1.69,0,0,1-2.48-.2s-1.12.8-1.73.12a4.75,4.75,0,0,1-.84-2s-1,.23-.76-.75,1.79-1.16,1.79-1.16.69,0,.5.84a1.25,1.25,0,0,1,.61,0s-.5-1.19.47-1.44S411.15,389,409,389.86Z" transform="translate(-55.05 -87.14)" fill="#fffad4"/><path d="M407.79,388.77s-.92.26-1.27-.13a.57.57,0,0,1-.5-.13,1.42,1.42,0,0,1-.24-.57s-.27.07-.21-.22.51-.33.51-.33.88-.09,1.16-.16S408.4,388.51,407.79,388.77Z" transform="translate(-55.05 -87.14)" fill="#f5ba49"/><path d="M410.59,388.38s-.79-1.1,1-1.82c0,0-1-.76-.45-1.64a.73.73,0,0,1,1.22-.19,1.47,1.47,0,0,1,2.23.47s.47.45,0,1.53c0,0,1.38.48.21,1.93S410.59,388.38,410.59,388.38Z" transform="translate(-55.05 -87.14)" fill="#faf9ed"/><path d="M412.29,387.29s-.24-.33.28-.55c0,0-.29-.23-.14-.5a.22.22,0,0,1,.37-.05.45.45,0,0,1,.68.14s.14.13,0,.46c0,0,.42.15.06.58S412.29,387.29,412.29,387.29Z" transform="translate(-55.05 -87.14)" fill="#f5ba49"/><path d="M408.62,379.31" transform="translate(-55.05 -87.14)" fill="#f8e696"/><path d="M417.84,373.94s2.84,8.46,2.68,14.66-10.25,15.85-10.25,15.85L408,401s7.09-7.23,6.47-13.43a33.63,33.63,0,0,0-3-11.32S413.68,377.1,417.84,373.94Z" transform="translate(-55.05 -87.14)" fill="#805e3b"/><path d="M417,401.48c-1.9-.12-4.25,0-4.25,0l-5,1.57s-1.61.46-1.24.93,1.42.05,1.42.05l4.52-1.2-3.88,1.23s-1.76.3-1.28,1,1.73,0,1.73,0l3.77-1.06-3.58,1.24s-1.39.33-1.07,1.12,1.31.3,1.31.3l3.87-1.56a13.77,13.77,0,0,0-3.71,2.19c-1,1.1.63,1,.63,1s4.05-1.37,5-2.16a5.69,5.69,0,0,1,2.69-.94S417.48,401.51,417,401.48Z" transform="translate(-55.05 -87.14)" fill="#805e3b"/><path d="M409.67,399.48c-1.62,1-3.46,2.46-3.46,2.46L403,406.13s-1.05,1.3-.48,1.47,1.19-.77,1.19-.77l3-3.59-2.46,3.24s-1.27,1.25-.48,1.56,1.44-1,1.44-1l2.47-3.05-2.21,3.08s-.94,1.07-.24,1.53,1.25-.5,1.25-.5l2.26-3.52a14.15,14.15,0,0,0-1.77,3.94c-.21,1.5,1.09.45,1.09.45s2.53-3.45,2.85-4.65a5.73,5.73,0,0,1,1.65-2.32S410.13,399.2,409.67,399.48Z" transform="translate(-55.05 -87.14)" fill="#805e3b"/><path d="M251.8,314.34s.86-4.65,3.93-4.65,3.43,3.36,3.43,3.36,4.72.4,4.72,4.86c0,6.82-1.35,10.83-3.11,13-1.52,1.9-2.81,1.48-5.5,1.72s-5.54-4.43-5.33-7.74A103,103,0,0,1,251.8,314.34Z" transform="translate(-55.05 -87.14)" fill="#efa43f"/><path d="M274.89,346.56s3.85,7.52,3.65,10.95-6.09,21.18-8.33,23.09l-1.7-5.91s3.62-9.91,3.28-15.62c-.25-4-1.36-9.92-1.36-9.92l-.77-4.34Z" transform="translate(-55.05 -87.14)" fill="#efa43f"/><path d="M269.56,392.54c1.79,4.91,3.17,30.7,2.53,30.7-1.71,0-4.51.33-4.62,0-.24-.74-2.7-15.38-3.18-23.07C263.74,391.1,265.89,382.48,269.56,392.54Z" transform="translate(-55.05 -87.14)" fill="#f7b11a"/><path d="M253.45,390.78c1.43,5,1,30.85.31,30.81-1.71-.13-4.53,0-4.61-.36-.18-.75-1.58-15.53-1.5-23.24C247.75,388.92,250.53,380.49,253.45,390.78Z" transform="translate(-55.05 -87.14)" fill="#f7b11a"/><path d="M242.8,369s.78,12.73.78,15.79v11.56s-.07,1.32,2.54,1.15,3.45-.63,4.84-.24,4.32,1.13,4.94.63.84-4.39.84-4.39l.94-8.36s0-.42.18-.45.27.37.27.37l.8,12.54s0,1.47,2.06,1.81,11.89.39,11.89.39.75-.45.54-1.8-3.94-28.6-5.61-31S242.8,369,242.8,369Z" transform="translate(-55.05 -87.14)" fill="#414141"/><path d="M246.28,332.31s4.65.13,7-1.6h2.64c-.33-.15,4.67,2.87,7.29,3.17C265.24,334.11,251.5,340.23,246.28,332.31Z" transform="translate(-55.05 -87.14)" fill="#efa43f"/><path d="M233.9,344.81s-.2,4.24,2.38,5.58,6.82,1.48,6.82,1.48l-.69-4c-2.08,0-2.79-2.7-2.79-2.7A7.42,7.42,0,0,1,233.9,344.81Z" transform="translate(-55.05 -87.14)" fill="#efa43f"/><path d="M247.67,332.63s7.45,4.88,15.46.77c0,0,4.14-1,5.39-.26s5.23,6,8.3,13.5c0,0,2.14,5.55,1.66,6.25s-7.1,2.21-7.82,2.21c-1,0-1.3-1.61-1.3-1.61s-.8-5.27-1.29-5.27c-2.38,0-.62,3.6.07,6.52s1.31,13.68,1.31,13.68,1.18,5.27-8.31,4.11c-4.22-.51-10.66-2.41-13.19-1.74-4.2,1.12-6.16.19-6.16.19l-.87-24.42-.7,3.55a8.8,8.8,0,0,1-4.94,1.32c-2.44-.28-4.53-3.2-4.53-3.2a27.11,27.11,0,0,1,5-9.75c4-5.22,6.68-5.81,6.68-5.81A6.3,6.3,0,0,1,247.67,332.63Z" transform="translate(-55.05 -87.14)" fill="#c67d9e"/><path d="M250,331c-4,0-6.24-3.58-5.79-7.91s-1.06-11.91,3.84-15.46c.82-4.93,7.36-5.09,8.16-2.77,0,0,2.79-.52,4.12-.62,1.58-.12,4.33,2.93,3.15,6.54,0,0,9.21,6.61-3.68,8,0,0-5.15-.31-6,4.08S253.94,331,250,331Z" transform="translate(-55.05 -87.14)" fill="#221f1f"/><path d="M229.06,313.11s.85-4.64,3.93-4.64,3.42,3.36,3.42,3.36a6.1,6.1,0,0,1,3.64,5.81c0,6.82-1.51,10-3.08,12.36s-1.76,1.21-4.44,1.44S227,327,227.2,323.71A103,103,0,0,1,229.06,313.11Z" transform="translate(-55.05 -87.14)" fill="#efa43f"/><path d="M226.34,329.26c-4.28,0-6.71-3.85-6.23-8.5s4.29-18,5.52-19.77,3.6-6.35,6.8-3.69c.67.55,2.36,2.08.59,3.85,0,0,2.57-2.74,4-2.85,1.7-.12,4.08,1.51,1.08,6.71,0,0,8.36,4.93-1.34,9.64,0,0-5.43,1.18-6.36,5.9S230.63,329.26,226.34,329.26Z" transform="translate(-55.05 -87.14)" fill="#221f1f"/><path d="M230.44,310c0-.17-1.64-5-4.21-2.89s-1.61,9.5-1.5,10.11.54,8,4,7.75S230.44,310,230.44,310Z" transform="translate(-55.05 -87.14)" fill="#221f1f"/><path d="M257.52,343.87c.4-.32,3.11-1.53,3.11-1.53l3.63-2.9s1.35-.9.87-1.22-1.32.36-1.32.36L260,341l3.21-2.28s1.54-.78.9-1.29-1.61.47-1.61.47L259.33,340l2.93-2.2s1.18-.71.66-1.34-1.3.1-1.3.1l-3.1,2.58a13.37,13.37,0,0,0,2.77-3.11c.63-1.32-.87-.74-.87-.74a27.13,27.13,0,0,0-4,3.47,12.21,12.21,0,0,0-1.1,2.69S257.11,344.18,257.52,343.87Z" transform="translate(-55.05 -87.14)" fill="#efa43f"/><path d="M224.9,398.89s-.62,9.39-.63,11.17c0,4.8,1.54,16,1.54,16h4.54s1.46-22.12.9-25.65a78.15,78.15,0,0,1-.28-10.68S223.88,388.8,224.9,398.89Z" transform="translate(-55.05 -87.14)" fill="#efa43f"/><path d="M235.31,398.89s-.21,21.27,0,23a25,25,0,0,1,0,4.09h5.45s1.45-22.12.9-25.65a76.48,76.48,0,0,1-.28-10.68S234.29,388.8,235.31,398.89Z" transform="translate(-55.05 -87.14)" fill="#efa43f"/><path d="M236.7,331.74s-.52-1-5.95-1-5.65,4.24-5.93,5.38a166.74,166.74,0,0,1-3.23,23.73c-.05,3-3.15,3.37-3.46,9.05-.12,2.22.71,8.32.52,10.79-.89,11.46-2.25,20.93-2.25,20.93s-.93,7.28,3.5,5.14a17.37,17.37,0,0,0,6.84-6.64s2.63,3.42,5.42,3.14,5-6.5,5-6.5a1.89,1.89,0,0,1,2.25-1.32c1.79.36,3.4,3.95,3.79,4.72.85,1.68,4.14,4.42,4.78-5.07.35-5.08-4.12-13.61-4.88-22.49-.67-7.73,0-20.26,0-20.26s4-5.05.94-9.49S238.5,332.13,236.7,331.74Z" transform="translate(-55.05 -87.14)" fill="#683c8e"/><path d="M237.1,334.64c-1.87-.1-2.16-.76-2.56,2.76s.59,15.84,1.34,17.44,2.11,7,7.07,4c2.07-1.27,4.88-4.32,7.39-7.3a75.49,75.49,0,0,1,7.18-7.65L255.65,341a116.63,116.63,0,0,0-9.82,9.41c-4,4.6-5.41,1.52-5.41-.27L239.63,337A2.5,2.5,0,0,0,237.1,334.64Z" transform="translate(-55.05 -87.14)" fill="#efa43f"/><path d="M266.35,421.84s-.33,8.1,0,9.39,7.31.35,7.31.35l.44-4.95a3,3,0,0,0,3.22,1.58c.78-.17,3.21-2.33,3.9-3.4.59-.9-.58-3.19-.58-3.19s-.15-2.27-3.52-1.23a38.64,38.64,0,0,1-4,1.57c-.24.05,0-1.31-.26-1.27C269.68,421.22,266.35,421.84,266.35,421.84Z" transform="translate(-55.05 -87.14)"/><path d="M248.8,419.31s-.91,8.06-.68,9.37,7.27.88,7.27.88l.8-4.91a3,3,0,0,0,3.1,1.81c.78-.11,3.37-2.1,4.13-3.1s-.35-3.23-.35-3.23,0-2.27-3.42-1.48a39.3,39.3,0,0,1-4.14,1.27c-.25,0,.07-1.31-.17-1.29C252.17,418.93,248.8,419.31,248.8,419.31Z" transform="translate(-55.05 -87.14)"/><path d="M234.71,424.92s-.28,7.24,0,8.39,6.54.31,6.54.31l.39-4.42s.27,1.37,2.23.95a12.83,12.83,0,0,0,4-3.18c.53-.81-.35-2.25-.35-2.25s-.13-2-3.14-1.1c-.91.28-1.94.55-3.22.82A31.34,31.34,0,0,1,234.71,424.92Z" transform="translate(-55.05 -87.14)"/><path d="M225.26,425.82s-.29,7.24,0,8.39,6.54.31,6.54.31l.39-4.42a3.24,3.24,0,0,0,2.86.42c.69-.15.32-2.11.93-3.06s-1.77-2.18-1.77-2.18a8.08,8.08,0,0,0-2.54.06A30.58,30.58,0,0,1,225.26,425.82Z" transform="translate(-55.05 -87.14)"/><path d="M243.62,305.14v8.8a2.39,2.39,0,0,0,1.26,2.31c2.78,1.36,12.66,3.23,20.29,1,0,0,2.14-.32,2.06-1.43s0-9.11,0-9.11Z" transform="translate(-55.05 -87.14)" fill="#59575a"/><path d="M240.32,304.23s12.32,9.11,13.36,9.35,2,.08,5-1.59,9.29-5.34,11-5.9,2.22-1.59,1.35-2.38-14.82-8.46-14.82-8.46a3,3,0,0,0-2.72-.26c-.84.29-4.44,1.77-6.29,2.72-3.15,1.63-7,3.78-7,3.78S238.19,302.14,240.32,304.23Z" transform="translate(-55.05 -87.14)" fill="#1a1a1a"/><path d="M262.18,320.56c-.64-3.27-.5-10.4-.5-10.7l.94-.33c0,.07-.12,7.68.49,10.85Z" transform="translate(-55.05 -87.14)" fill="#1a1a1a"/><path d="M262.14,320.38s0,.19-.47,1.92-.33,2.26-.12,2.8,1.59,1.72,2.39.18.61-1.69.16-2.76-1-2.14-1-2.14Z" transform="translate(-55.05 -87.14)" fill="#ef6623"/><path d="M161.87,251.73s-2.68-14.71-16.36-14.4-14,18.78-14,18.78-.22,15.82,16.06,16.78S161.54,254.83,161.87,251.73Z" transform="translate(-55.05 -87.14)" fill="#58575a"/><path d="M676.35,254.74s-1.94-10.61-11.8-10.38-10.09,13.54-10.09,13.54S654.3,269.31,666,270,676.11,257,676.35,254.74Z" transform="translate(-55.05 -87.14)" fill="#58575a"/><path d="M229,260.64a22,22,0,0,1-7.72-4.48,61.23,61.23,0,0,1-7.15-6.8c-1.17-1.48-3-3.31-3.53-6.23a5.43,5.43,0,0,1,1.22-5.08,8.26,8.26,0,0,1,2.46-1.19s1.65-.7,3.88,1.17a54.14,54.14,0,0,1,4.71,4.67l.4.5a11.1,11.1,0,0,0-.31-1.28,27.51,27.51,0,0,1-1.53-6c-.09-2.06.17-3.95,1.68-5.49a8.45,8.45,0,0,1,6.51-2.89c2.91.13,5.05,1.53,5.59,2.41a19.28,19.28,0,0,1,2.33,6.26c2.8,15.78-4.46,25.35-6.25,24.89Z" transform="translate(-55.05 -87.14)" fill="#f2bbbe"/><path d="M569.51,211.59A26.52,26.52,0,0,1,568,201c.3-6.11.59-9.54,1.11-11.74s.9-5.24,3.24-7.91,4.58-2.69,5.66-2.61a9.89,9.89,0,0,1,2.94,1.43s1.87,1,1.76,4.5a64,64,0,0,1-.9,7.88s-.13.59-.18.74a13.42,13.42,0,0,0,1-1.24s2.59-4.25,4.46-5.85,3.83-2.75,6.39-2.47a10.09,10.09,0,0,1,7.52,4c2,2.83,2.3,5.87,1.87,7a22.92,22.92,0,0,1-4.15,6.8c-12.73,14.29-27.07,14.55-28,12.53Z" transform="translate(-55.05 -87.14)" fill="#eb1e2d"/><g opacity="0.5"><g clip-path="url(#clip-path)"><polygon points="468.82 160.83 443.04 222.5 448.17 222.5 475.5 160.83 468.82 160.83" fill="#fff6de"/><polygon points="449.39 160.83 423.61 222.5 436.66 222.5 463.99 160.83 449.39 160.83" fill="#fff6de"/></g></g><path d="M499.93,350.5s-.63,14-1.37,16.51-1.49,15.25-1.49,15.25-.16,1.15-2,1a13.54,13.54,0,0,1-4-1.32s.82-14.59.49-17.06.28-16.05.28-16.05" transform="translate(-55.05 -87.14)" fill="#414141"/><path d="M490.66,378.28c-.43,1.06-4.4-.83-4.43-1.95s-.12-5.2-.35-7-2.22-16.2-1.64-17.8l7.7-2.57-.24,10.12-.74.22S491.1,377.23,490.66,378.28Z" transform="translate(-55.05 -87.14)" fill="#414141"/><path d="M496.55,304.28a4.41,4.41,0,0,0,.74-.53c2.41-2.2,3.18-8.35,2.36-9.83s-3-5.39-5.5-4.68-3.68,4-3.68,4c-2.13,6.68.26,10.08.86,10.79-.87,1.29-2,2.89-2,2.89s9.39.33,8.43-.36A4.47,4.47,0,0,1,496.55,304.28Z" transform="translate(-55.05 -87.14)" fill="#efa43f"/><path d="M484.32,307.27a11.4,11.4,0,0,1,5.72-1.42c1.54,1.32,5.12,1.17,7.43.4a13.7,13.7,0,0,1,3.59.89c3.05,1.26,4.65,8.88,4.65,8.88s1.58,5.79,0,10.65l-4.3-.1-.37-1.83-.22,0c-.14,5.58-.31,8.8.26,12.06.69,4,.49,12.91.49,12.91s1.76,4.49-4.46,5.1c-3.9.38-3.56-3.45-5-6.25,0,0-1.42,6-6.78,6.23-7.68.38-5.68-4.7-5.74-6L485,328s2.13-6.32.58-6.49-.67,5.35-1.91,5.57c-.92.16-1.69-2.54-4.92-1.51C477.16,326,480.26,310.47,484.32,307.27Z" transform="translate(-55.05 -87.14)" fill="#e91d25"/><path d="M487.17,291l.06.11c.29.53,1.66,2.82,3.38,2a5.21,5.21,0,0,0,2.53,2.88s-.35,5.46,2.59,7.15c0,0,2.26,2.77,4.56,1.08,0,0,4.52-3.36,3.9-7a6.69,6.69,0,0,0-.37-4.44,9.8,9.8,0,0,0-2.13-3l-5.55-3s-4-1.13-6.13,1.07C490,287.78,486.32,288.22,487.17,291Z" transform="translate(-55.05 -87.14)" fill="#221f1f"/><path d="M491.52,382.15v4.44s1.69,1.73,3.33,1.43,1.29-4.85,1.29-4.85" transform="translate(-55.05 -87.14)"/><path d="M490.55,378.44s.25,6.29-.11,6.35a9.15,9.15,0,0,1-2.92-.57c-.22-.09-.17-1.63-.17-1.63a3.06,3.06,0,0,1-2.86-1.65,2.8,2.8,0,0,1,1.27-3.53,2.25,2.25,0,0,1,1.52,0Z" transform="translate(-55.05 -87.14)"/><path d="M479,325.47l-.67,4.7c-.14,1-.3,3.13.67,3.42s4.69-.58,4.69-.58l.84-3.23s-1.93.13-2.19-.43.75-2.5.75-2.5S482,324.66,479,325.47Z" transform="translate(-55.05 -87.14)" fill="#efa43f"/><path d="M511.9,352.57l-2.11,16.68s-.8,2.67,1.51,3,9-.26,12.1,0a39.84,39.84,0,0,0,7.66-.44s1.69-.18,1.69-3.12-1-20.08-1-20.08Z" transform="translate(-55.05 -87.14)" fill="#fff6c2"/><path d="M523.4,372.27s-.71,8.49-.18,12.19a66.36,66.36,0,0,1,.13,10.07l4.07-.39,1.85-22.08" transform="translate(-55.05 -87.14)" fill="#efa43f"/><path d="M515.17,372.39c-.1,5.78,1.08,11.12,1.52,16.8.22,2.82.26,5.6.26,5.6h4.38s-.82-5.46-.41-7.74c.8-4.42-.23-15.28-.43-14.8Z" transform="translate(-55.05 -87.14)" fill="#efa43f"/><path d="M515.84,307s.4-6.15,4.67-8.82,7.08,2.94,7.08,2.94a33.75,33.75,0,0,1,.92,7.67c0,2-.93,7.13-4.13,7.06l-8-.17S515,310.8,515.84,307Z" transform="translate(-55.05 -87.14)" fill="#efa43f"/><path d="M531.33,301.32l-.06.11c-.29.54-1.65,2.83-3.37,2a5.29,5.29,0,0,1-2.54,2.88,7.56,7.56,0,0,1-3.33,5.32s-3.53,2.26-5.84.58c0,0-2.5-1-1.87-4.66a6.62,6.62,0,0,1,.37-4.44,9.7,9.7,0,0,1,2.12-3,4.5,4.5,0,0,1,2.72-5.1c3.53-1.4,4,2.28,4,2.28a4.49,4.49,0,0,1,5,.87S532.18,298.53,531.33,301.32Z" transform="translate(-55.05 -87.14)" fill="#221f1f"/><path d="M539.13,332.81s.61,5.66.75,6.65-.15,3.44-1.12,3.73-4.69-.59-4.69-.59l-1.32-3.29s2.41.2,2.67-.36-.76-2.51-.76-2.51S536.08,332,539.13,332.81Z" transform="translate(-55.05 -87.14)" fill="#efa43f"/><path d="M523.36,393.2a54.44,54.44,0,0,0,0,5.45c.19.75,4.24.2,4.24.2l.26-2.87s.17.89,1.44.61a8.18,8.18,0,0,0,2.57-2.06c.34-.52-.22-1.46-.22-1.46s-.09-1.31-2-.71c-.59.18-1.26.36-2.09.53A20,20,0,0,1,523.36,393.2Z" transform="translate(-55.05 -87.14)"/><path d="M516.93,393.2a51.58,51.58,0,0,0,0,5.45c.19.75,4.24.2,4.24.2l.26-2.87a2.1,2.1,0,0,0,1.85.27c.45-.1.21-1.37.61-2s-1.15-1.41-1.15-1.41a5.23,5.23,0,0,0-1.65,0A20,20,0,0,1,516.93,393.2Z" transform="translate(-55.05 -87.14)"/><path d="M535,319.5c-1.26-1.57-3.2-4.81-7.47-3.92s-15.84-.71-15.84-.71c-2.5-.53-5.52,1.78-6.41,3.74s-6.59,9.25-6.59,9.25a6.61,6.61,0,0,0,3.92,8s4.93-7.47,6.42-5.39,2.74,24.08,2.71,26.31,6.62,2.67,10.62,2.85,4.1-1,4.1-1-1.21-9,.44-9.18,1.16,9.07,1.16,9.07a8.08,8.08,0,0,0,6.14-1.42c2.67-2.13,2.14-4.09,2.14-4.09.35-9.43-4-15-4-15s-3.3-5.32-2.3-6.4c2.75-2.93,3.57,4.95,4.59,5.59s4.54-3.09,4.69-4.16S538.35,323.71,535,319.5Z" transform="translate(-55.05 -87.14)" fill="#f8e385"/><path d="M504.19,335s-.72,4.09,2.48,4,5.7-3.12,5.7-3.12L515,315.28l1,.1-2.52,20.49s.54,20-2.22,23.78-7.3,7.11-9.79-.46.18-21.93.18-21.93l.69-2.45,8.3-20.1,1.29.16s-2.63,5.91-3.94,9.53Z" transform="translate(-55.05 -87.14)" fill="#221f1f"/><path d="M523.79,253.11s6.29,18.94,6.64,20.32a10.94,10.94,0,0,1-.11,3.71l-4-.11-2.14-3-1.62-.05-.66,2.37-6.59.33L512.75,274h-4.17a15.33,15.33,0,0,1-2.23,2.87c-.6.31-8.33-.25-8.33-.25L495.91,273l-7.75,0a32.18,32.18,0,0,0-2.25,3.4l-7.53-.14-3.1-4.05-8.31.1-1.39,3.8-10.22-.3c-.52,0-2.3-3.91-2.3-3.91l-5.8.09-1.2,3.29s-7.89.09-8.92-.33.11-3.65.11-3.65l10.18-20.41Z" transform="translate(-55.05 -87.14)" fill="#1e71b2"/></svg>